<?xml version="1.0" encoding="utf-8"?>
<!-- Generator: Adobe Illustrator 19.0.0, SVG Export Plug-In . SVG Version: 6.00 Build 0)  -->
<svg version="1.1" id="Layer_2" xmlns="http://www.w3.org/2000/svg" xmlns:xlink="http://www.w3.org/1999/xlink" x="0px" y="0px"
	 viewBox="0 0 48 24" style="enable-background:new 0 0 48 24;" xml:space="preserve">
<g id="XMLID_7_">
	<polygon id="XMLID_8_" points="8.1,13 4.6,16.5 2,13.9 2,22 10,22 7.4,19.4 10.9,15.8 	"/>
	<polygon id="XMLID_9_" points="15.9,13 13.1,15.8 16.6,19.4 14,22 22,22 22,13.9 19.4,16.5 	"/>
	<polygon id="XMLID_10_" points="14,3 16.6,5.6 13.1,9.2 15.9,12 19.4,8.5 22,11.1 22,3 	"/>
	<polygon id="XMLID_16_" points="10,3 2,3 2,11.1 4.6,8.5 8.1,12 10.9,9.2 7.4,5.6 	"/>
</g>
<g id="XMLID_32_">
	<path id="XMLID_34_" d="M31,4v12h16V4H31z M45,14H33V6h12V14z"/>
	<polygon id="XMLID_33_" points="39,18 27,18 27,10 30,10 30,8 25,8 25,20 41,20 41,17 39,17 	"/>
</g>
</svg>
